<?xml version="1.0" encoding="utf-8"?>
<!-- Generator: Adobe Illustrator 26.3.1, SVG Export Plug-In . SVG Version: 6.00 Build 0)  -->
<svg version="1.1" id="Camada_1" xmlns="http://www.w3.org/2000/svg" xmlns:xlink="http://www.w3.org/1999/xlink" x="0px" y="0px"
	 viewBox="0 0 337 155" style="enable-background:new 0 0 337 155;" xml:space="preserve">
<style type="text/css">
	.st0{fill:#FFFFFF;}
	.st1{fill:#E20016;}
	.st2{fill:#1B1918;}
	.st3{fill:#F66C00;}
	.st4{fill:#008CC4;}
	.st5{fill:#009500;}
	.st6{fill:#FEBD26;}
	.st7{fill:#E50500;}
	.st8{fill:#B300FE;}
	.st9{fill:#AB1019;}
	.st10{fill:#008DC4;}
	.st11{fill:#AA417F;}
	.st12{fill:#E50601;}
	.st13{fill:#B401FE;}
	.st14{fill:#F66C01;}
	.st15{fill:#019601;}
	.st16{fill:#B402FE;}
	.st17{fill:#AC121B;}
	.st18{fill:#AC131C;}
	.st19{fill:#AF1922;}
	.st20{fill:#F66D03;}
	.st21{fill:#FEFEFE;}
	.st22{fill:#F8F3F4;}
	.st23{fill:#E20117;}
	.st24{fill:#E3041A;}
</style>
<g>
	<path class="st0" d="M112.73,54.73c-1.88-1.97-4.29-2.58-5.93-2.87c-1.35-0.24-2.09-0.55-2.71-1.14l-0.29-0.56l0.53-0.8l-1.84-1.32
		c-0.59-0.41-1.19-0.79-1.78-1.18c-1.25-0.81-2.44-1.58-3.46-2.46c-1.08-0.94-2.07-2.03-3.11-3.2c-0.48-0.54-0.96-1.07-1.46-1.6
		l-0.98-0.45l-1.19-0.05c-0.86,0.33-1.27,0.88-1.46,1.31L80.58,30.3l-1.05-0.1l-0.21-0.29c-0.2-0.28-0.38-0.54-0.56-0.8
		c-0.44-0.63-0.88-1.29-1.47-1.88c-0.62-0.62-1.35-0.93-1.94-1.18c-0.12-0.05-0.24-0.1-0.36-0.15c-0.33-0.15-0.64-0.23-0.86-0.28
		c-0.03-0.01-0.07-0.02-0.1-0.02c-1.01-0.64-2.01-1.3-3.03-1.98l-1.83-1.21l-1.06-0.29L57.72,16.4l-0.64-0.86l-11.01-2.18
		l-0.47,1.96l-1.68-1.45l-0.03-0.22l-0.28-0.05l-0.57,0.05l-0.55,0.13l-3.1,0.5c-0.58,0.09-1.13,0.19-1.66,0.29
		c-1.07,0.2-1.99,0.37-2.89,0.42c-1.39,0.09-2.83,0.11-4.22,0.13c-0.93,0.01-1.85,0.03-2.78,0.06c-0.61,0.02-1.15,0.2-1.47,0.3
		l-1.23,0.31c-0.71,0.18-1.06,0.98-0.71,1.62l0.91,1.69c0.27,0.51,0.51,0.96,0.77,1.41l0.03,0.05l-0.74,0.91
		c-0.29,0.36-0.58,0.71-0.87,1.06c-0.67,0.8-1.36,1.63-1.98,2.51c-1.22,1.72-1.4,3.99-0.43,5.87c0.36,0.7,0.7,1.37,0.82,1.95
		c0.35,1.76,1.48,2.64,2.39,3.15l0.27,2.82c0.26,2.79,1.2,4.87,3.05,6.74c1.13,1.15,0.7,1.6,0.23,2.07
		c-0.22,0.23-0.45,0.44-0.68,0.65c-0.33,0.31-0.67,0.62-0.98,0.95c-1.57,1.67-1.72,3.86-0.38,5.45l0.74,0.88l-0.31,1.65
		c-0.27,1.42-0.71,3.73,1.23,5.46c0,0,0,0,0,0c0.05,0.19,0.1,0.37,0.16,0.54c0.04,0.12,0.08,0.26,0.11,0.39
		c0.12,0.44,0.28,1.05,0.67,1.63c0.24,0.35,0.33,0.62,0.18,1.21c-0.3,1.23,0.16,2.55,0.76,3.31c0.49,0.63,1.08,1.08,1.6,1.49
		c0.18,0.14,0.36,0.28,0.54,0.43l1.01,0.86c-0.01,0.25-0.01,0.3-0.02,0.55c-0.98,0.59-1.25,2.8-0.1,3.95
		c0.09,0.09,0.19,0.19,0.29,0.28l-0.39,2.56c-0.41,2.67,0.45,4.95,1.28,7.15c0.34,0.9,0.66,1.74,0.89,2.61l1.2,4.51
		c-0.25,2.16,0.8,3.8,3.14,4.77c0.53,0.22,1.03,0.32,1.48,0.41c0.26,0.05,0.51,0.1,0.68,0.16c0.41,0.15,0.84,0.36,1.35,0.61
		c0.26,0.13,0.53,0.26,0.81,0.39l0.82,0.39c-0.5,1.19-0.99,2.37-1.47,3.55c-0.04,0.11-0.06,0.23-0.09,0.35l-0.11-0.14l-2.35,7.24
		c-0.27,0.82,0.35,1.67,1.21,1.67h6.69l0.27,0.33l1.09,0.5l3.27-0.81c2.51-1.07,5.32-1.18,7.9-0.3l3.81,1.3l0.55,0.81
		c0.7,1.02,1.36,2,2.04,2.96c0.51,0.72,1.1,1.19,1.76,1.42c1.41,0.48,1.5,0.75,1.56,1.26l0.69,1.94c0.17,0.49,0.8,0.62,1.16,0.25
		l3.05-3.17c1.35-2,2.65-3.93,3.94-5.88c0.15-0.23,0.29-0.53,0.39-0.87l0.02,0.02c0.21,0.62,0.65,1.15,1.32,1.58l0.53,0.34
		c0.36,0.23,0.83,0.22,1.18-0.03l0.51-0.37c0.82-0.58,3.31-2.35,2.71-6.18l-0.5-3.16c-0.09-0.58-0.84-0.77-1.19-0.29l-0.91,1.23
		c-0.02-0.05-0.03-0.11-0.05-0.16c-0.06-0.21-0.14-0.46-0.15-0.55l-0.01-0.25c-0.03-0.77-0.08-2.2-1.2-3.22
		c1.87-1.26,2.66-3.15,2.03-4.9c-0.19-0.53-0.43-1.05-0.68-1.55l1.02-1.48c0.14-0.2,0.27-0.39,0.4-0.56
		c0.34-0.46,0.68-0.94,0.96-1.5c0.38-0.76,0.54-1.96,0.06-2.92c-0.3-0.6-0.69-1.08-1.03-1.5c-0.12-0.14-0.24-0.29-0.35-0.45l-0.75-1
		c1.11-1.34,2.21-2.68,3.29-4.01c0.18-0.22,0.32-0.49,0.42-0.79l1.9,2.63c0.4,0.55,1.18,0.65,1.71,0.22l0.67-0.55
		c0.19-0.16,0.4-0.3,0.59-0.43c0.62-0.44,1.33-0.93,1.81-1.76c0.61-1.05,0.97-2.15,1.32-3.21l0.21-0.62
		c0.26-0.75,0.07-1.41-0.04-1.8c-0.02-0.08-0.05-0.16-0.07-0.26l-0.45-2.3l2.02-2.18l-0.17-0.22l0.45-0.27
		c2.58-1.53,3.93-3.88,5.13-5.96c0.35-0.61,0.7-1.22,1.08-1.8l0.43-0.66l0.39-0.05c2.68-0.36,4.39-1.91,5.89-3.28
		c0.55-0.5,1.07-0.98,1.62-1.38l0.83-0.61c0.53-0.39,0.6-1.16,0.14-1.64L112.73,54.73z M84.03,113.16l-0.61-0.49c0,0,0,0,0,0
		L84.03,113.16C84.03,113.16,84.03,113.16,84.03,113.16z"/>
	<path class="st1" d="M308.97,111.61c1.67,0.05,3.33,0.11,5,0.16c0.75,0.02,1.5,0,2.32,0c0,8.91,0,17.71,0,26.57
		c-25.42,0-50.8,0-76.24,0c0-8.84,0-17.64,0-26.49c1.49-0.08,2.95-0.15,4.4-0.22c2.83,0.03,5.65,0.08,8.48,0.08
		c3.22,0,6.45-0.05,9.67-0.08c1,0,1.99,0,2.99,0c2.66,0.01,5.31,0.02,7.97,0.02c2.95,0.04,5.89,0.09,8.84,0.11
		c0.94,0.01,1.89-0.08,2.83-0.13c0.36,0.03,0.71,0.08,1.07,0.08c7.25,0,14.5,0.01,21.74,0
		C308.34,111.71,308.65,111.64,308.97,111.61z M258.01,124.42c1.45-0.44,2.48-1.17,2.94-2.52c0.72-2.13-0.49-4.29-2.91-4.94
		c-1.06-0.29-2.2-0.34-3.31-0.35c-2.74-0.05-5.48-0.02-8.23-0.02c0,5.73,0,11.3,0,16.77c3.7,0,7.32,0.08,10.94-0.05
		c0.92-0.03,1.91-0.59,2.71-1.13c1.49-1.01,2.03-2.57,1.71-4.31c-0.31-1.69-1.48-2.67-3.1-3.14
		C258.55,124.66,258.35,124.56,258.01,124.42z M304.03,116.65c-2.32,0-4.54,0-6.75,0c-1.96,5.64-3.89,11.22-5.85,16.86
		c1.93,0,3.67,0,5.41,0c0.11-0.31,0.21-0.57,0.29-0.84c0.73-2.46,0.72-2.46,3.24-2.46c2.81,0,2.81,0,3.65,2.73
		c0.06,0.19,0.13,0.37,0.19,0.55c1.88,0,3.72,0,5.66,0C307.91,127.83,305.98,122.27,304.03,116.65z M276.29,116.69
		c-4.29,0-8.46,0-12.58,0c0,5.67,0,11.23,0,16.82c4.22,0,8.36,0,12.55,0c0-1.34,0-2.63,0-4.01c-2.45,0-4.84,0-7.2,0
		c0-0.92,0-1.74,0-2.65c2.29,0,4.52,0,6.81,0c0-1.23,0-2.37,0-3.64c-2.3,0-4.56,0-6.82,0c0-0.92,0-1.7,0-2.6c2.44,0,4.81,0,7.24,0
		C276.29,119.23,276.29,117.97,276.29,116.69z M292.83,116.67c-4.97,0-9.82,0-14.66,0c0,1.35,0,2.61,0,3.98c1.57,0,3.07,0,4.7,0
		c0,4.36,0,8.61,0,12.82c1.83,0,3.52,0,5.31,0c0-2.2,0-4.31,0-6.42c0-2.11,0-4.21,0-6.44c1.61,0,3.11,0,4.66,0
		C292.83,119.24,292.83,117.98,292.83,116.67z"/>
	<path class="st2" d="M273.55,111.65c-2.66-0.01-5.31-0.02-7.97-0.02c-0.11-0.74-0.21-1.47-0.35-2.46c-0.98,0.91-1.8,1.69-2.63,2.46
		c-3.22,0.03-6.45,0.08-9.67,0.08c-2.83,0-5.65-0.05-8.48-0.08c-1.73-1.66-3.41-3.44-4.02-5.8c-0.7-2.72-1.38-5.51-1.49-8.3
		c-0.15-3.64-0.16-7.39,0.5-10.96c1.64-8.85,8.07-13.08,16.88-12.46c1.41,0.1,2.84,0.41,4.2,0.82c1.35,0.41,2.62,1.07,4.1,1.69
		c0-3.06,0-6.07,0-9.08c0-3.03,0-6.05,0-9.14c3,0,5.9,0,8.89,0c0.03,0.24,0.09,0.5,0.09,0.76c0,17.29,0,34.59,0,51.88
		C273.59,111.25,273.56,111.45,273.55,111.65z M264.72,91.45c-0.04,0-0.08,0-0.12,0c0-2.52-0.03-5.03,0.02-7.55
		c0.01-0.71-0.18-1.17-0.85-1.36c-1.94-0.55-3.86-1.39-5.83-1.57c-5.85-0.54-9.13,2.09-9.85,7.88c-0.34,2.71-0.28,5.5-0.19,8.24
		c0.05,1.69,0.35,3.41,0.8,5.05c0.68,2.46,2.38,4.06,4.91,4.53c1.31,0.24,2.71,0.32,4.03,0.17c4.01-0.46,6.16-2.43,6.65-6.43
		C264.67,97.45,264.59,94.44,264.72,91.45z"/>
	<path class="st2" d="M124.31,111.52c0.52-2.42,1.02-4.73,1.5-6.95c3.25,0.55,6.37,1.32,9.53,1.53c3.2,0.21,6.48,0.19,9.63-0.31
		c4.79-0.77,6.08-4.07,6-8.11c-0.07-3.8-1.56-6.02-6.32-6.91c-2.78-0.52-5.62-0.72-8.39-1.26c-8.38-1.63-11.89-7.57-11.44-15.51
		c0.14-2.53,0.61-4.99,1.93-7.2c1.88-3.14,4.86-4.73,8.22-5.73c6.36-1.91,17.29-1.4,23.69,1.11c-0.47,2.27-0.94,4.56-1.4,6.77
		c-2.6-0.47-5.12-1.1-7.68-1.36c-4.16-0.43-8.36-0.66-12.4,0.9c-1.67,0.65-2.86,1.83-3.27,3.55c-0.67,2.86-1.06,5.85,1.56,7.95
		c1.21,0.97,2.9,1.48,4.45,1.84c3.1,0.72,6.28,1.08,9.38,1.8c1.68,0.39,3.34,1.07,4.88,1.86c2.82,1.44,4.52,3.87,5.27,6.92
		c0.81,3.3,0.8,6.65,0.09,9.97c-1.12,5.2-4.47,8.4-9.4,10.04c-4.07,1.35-8.28,1.55-12.53,1.37
		C133.13,113.59,128.74,112.92,124.31,111.52z"/>
	<path class="st2" d="M195.32,113.14c-2.49,0-4.92,0-7.46,0c-0.22-1.19-0.44-2.38-0.7-3.74c-0.7,0.66-1.27,1.29-1.93,1.81
		c-3.04,2.37-6.64,2.82-10.3,2.61c-1.96-0.12-3.97-0.52-5.82-1.17c-3.17-1.11-5.16-3.54-5.68-6.81c-0.38-2.41-0.44-4.95-0.14-7.37
		c0.55-4.47,3.34-7.19,7.67-8.27c3.85-0.96,7.76-1.12,11.61-0.09c1.45,0.39,2.78,1.23,4.39,1.97c-0.16-1.88-0.15-3.79-0.5-5.62
		c-0.58-3-2.69-4.57-5.58-5.16c-4.07-0.84-8.1-0.36-12.12,0.4c-0.81,0.15-1.61,0.33-2.49,0.51c0.33-2.05,0.63-4.02,0.98-5.97
		c0.05-0.29,0.32-0.7,0.57-0.76c6.11-1.47,12.26-2.29,18.42-0.38c5.79,1.8,9.07,6.23,9.13,12.43c0.09,8.43,0.02,16.85,0.02,25.28
		C195.4,112.87,195.37,112.95,195.32,113.14z M179.05,95.42c0,0.03,0,0.07-0.01,0.1c-0.68,0-1.36-0.04-2.03,0.01
		c-2.85,0.18-4.73,1.29-5.2,3.38c-0.3,1.32-0.29,2.76-0.15,4.13c0.17,1.74,1.3,2.93,2.93,3.43c3.01,0.91,6.07,0.93,9.02-0.2
		c2.54-0.97,3.61-3.31,3.25-6.62c-0.23-2.05-1.9-3.55-4.48-3.93C181.27,95.55,180.16,95.51,179.05,95.42z"/>
	<path class="st2" d="M233.75,113.11c-2.51,0-5.02,0-7.63,0c-0.21-1.29-0.42-2.6-0.67-4.18c-2,2.48-4.36,3.98-7.2,4.57
		c-4.86,1.01-9.55,0.7-13.64-2.5c-2.73-2.14-4-5.14-4.05-8.47c-0.13-9.17-0.05-18.35-0.05-27.59c2.9,0,5.8,0,8.88,0
		c0,0.44,0,0.86,0,1.28c0,7.51-0.02,15.01,0.02,22.52c0.01,1.27,0.15,2.56,0.43,3.79c0.52,2.27,1.95,3.78,4.3,4.06
		c1.64,0.2,3.34,0.25,4.97,0.03c2.85-0.39,4.71-2.14,5.28-4.96c0.36-1.78,0.53-3.63,0.54-5.45c0.06-6.63,0.02-13.26,0.02-19.89
		c0-0.43,0-0.86,0-1.36c2.97,0,5.83,0,8.8,0C233.75,87.64,233.75,100.35,233.75,113.11z"/>
	<path class="st2" d="M308.97,111.61c-0.31,0.04-0.63,0.1-0.94,0.1c-7.25,0.01-14.5,0.01-21.74,0c-0.36,0-0.71-0.05-1.07-0.08
		c-1.26-1.25-2.67-2.38-3.76-3.77c-1.79-2.3-2.4-5.1-2.69-7.93c-0.45-4.29-0.52-8.59,0.24-12.87c1.35-7.62,6.78-12.42,14.53-12.94
		c3.1-0.21,6.16-0.15,9.1,0.88c6,2.09,8.68,6.67,9.15,12.74c0.15,1.91,0.09,3.83,0.03,5.75c-0.07,2.41-0.88,3.21-3.3,3.23
		c-4,0.04-7.99,0.01-11.99,0.01c-2.76,0-5.52,0-8.27,0c-0.27,0-0.54,0.05-0.92,0.1c0.21,1.4,0.36,2.74,0.61,4.06
		c0.63,3.29,2.72,5.1,5.94,5.72c3.88,0.74,7.78,0.57,11.68,0.19c1.43-0.14,2.84-0.4,4.43-0.64
		C309.65,107.98,309.31,109.79,308.97,111.61z M287.02,90.56c5.68,0,11.01,0,16.34,0c0-1.29,0.13-2.54-0.02-3.75
		c-0.45-3.64-2.32-5.67-5.65-6.1c-1.29-0.17-2.64-0.17-3.94,0c-2.49,0.32-4.52,1.53-5.37,3.98
		C287.74,86.53,287.48,88.51,287.02,90.56z"/>
	<path class="st2" d="M149.7,17.53c0,10.57,0,21.07,0,31.64c-0.79,0-1.57,0-2.5,0c0-8.73,0-17.47,0-26.21
		c-0.09-0.03-0.18-0.05-0.27-0.08c-0.22,0.38-0.46,0.76-0.65,1.15c-2.69,5.37-5.38,10.73-8.03,16.12c-0.31,0.63-0.63,0.98-1.4,0.9
		c-0.75-0.07-1.37,0.03-1.83-0.89c-2.6-5.27-5.29-10.49-7.96-15.73c-0.17-0.33-0.38-0.65-0.83-0.9c0,8.51,0,17.02,0,25.62
		c-0.94,0-1.74,0-2.63,0c0-10.54,0-21.06,0-31.72c0.52,0,1.03,0.06,1.53-0.01c0.76-0.11,1.11,0.23,1.44,0.89
		c3.13,6.24,6.3,12.47,9.46,18.7c0.17,0.34,0.37,0.67,0.67,1.19c0.33-0.54,0.59-0.91,0.79-1.31c2.94-5.88,5.88-11.76,8.81-17.64
		C147.27,17.25,147.28,17.25,149.7,17.53z"/>
	<path class="st2" d="M179.7,47.95c0,4.01,0,7.75,0,11.55c-0.89,0-1.7,0-2.57,0c0-11.01,0-21.97,0-32.99c0.7,0,1.37,0,2.14,0
		c0.13,0.84,0.26,1.72,0.43,2.84c0.47-0.45,0.81-0.75,1.13-1.07c3.07-3,9.3-3.22,12.58-0.44c1.37,1.16,2.09,2.72,2.46,4.39
		c0.74,3.38,0.82,6.82,0.12,10.21c-0.96,4.63-4.2,7.11-8.95,7.22C184.52,49.72,182.15,49.18,179.7,47.95z M193.85,38.15
		c-0.18-1.76-0.26-3.23-0.5-4.68c-0.56-3.37-2.3-5.02-5.66-5.22c-4.22-0.25-7.63,0.98-7.86,6.41c-0.15,3.5-0.1,7.02-0.08,10.52
		c0,0.32,0.38,0.76,0.7,0.93c2.58,1.34,5.33,1.52,8.14,1.03c2.34-0.41,3.91-1.82,4.5-4.09C193.52,41.38,193.64,39.61,193.85,38.15z"
		/>
	<path class="st2" d="M249.5,27.41c0-1.97,0-3.84,0-5.7c0-1.83,0-3.66,0-5.55c0.88,0,1.67,0,2.52,0c0,10.95,0,21.92,0,32.98
		c-0.69,0-1.38,0-2.18,0c-0.09-0.88-0.19-1.8-0.31-2.99c-0.5,0.55-0.8,0.94-1.16,1.28c-2.99,2.9-9.23,3.18-12.37,0.45
		c-0.87-0.76-1.68-1.8-2.05-2.87c-1.56-4.57-1.69-9.23-0.09-13.83c0.97-2.79,3.11-4.39,5.96-4.97c2.87-0.59,5.71-0.4,8.45,0.74
		C248.64,27.1,249.01,27.23,249.5,27.41z M249.59,35.89c-0.03,0-0.07,0-0.1-0.01c0-1.79-0.03-3.59,0.02-5.38
		c0.02-0.66-0.2-0.98-0.8-1.25c-2.32-1.04-4.76-1.33-7.24-1.01c-3.29,0.42-5.05,2-5.51,5.31c-0.33,2.34-0.33,4.76-0.2,7.12
		c0.26,4.72,2.28,7.02,7.52,6.72c3.27-0.19,5.49-1.84,5.95-5.08C249.53,40.2,249.48,38.03,249.59,35.89z"/>
	<path class="st2" d="M271.63,37.2c-0.08-1.54-0.05-2.95-0.25-4.31c-0.45-3-2.5-4.67-5.94-4.7c-2.41-0.02-4.83,0.25-7.25,0.39
		c-0.08-1.66,0.01-1.78,1.67-2.14c2.52-0.54,5.05-0.74,7.6-0.27c3.99,0.74,6.38,3.07,6.55,7.07c0.21,5.26,0.05,10.53,0.05,15.89
		c-0.68,0-1.38,0-2.23,0c-0.06-0.7-0.13-1.47-0.21-2.37c-0.26,0.15-0.44,0.21-0.57,0.33c-3.09,2.93-9.07,3.48-12.68,1.15
		c-0.27-0.17-0.53-0.36-0.76-0.58c-3.44-3.27-2.03-10.34,2.44-11.85c3.1-1.05,6.28-1.03,9.39,0.11
		C270.15,36.18,270.75,36.67,271.63,37.2z M264.49,47.52c0.01,0.04,0.02,0.08,0.03,0.12c1.24-0.25,2.52-0.39,3.72-0.76
		c2.42-0.75,3.51-2.65,3.31-5.52c-0.15-2.18-1.43-3.61-3.87-3.99c-1.44-0.22-2.93-0.25-4.39-0.16c-3.42,0.21-4.7,1.4-4.86,4.74
		c-0.15,2.99,0.69,5.06,4.4,5.41C263.38,47.43,263.93,47.47,264.49,47.52z"/>
	<path class="st2" d="M217.43,49.18c-0.71,0-1.34,0-2.06,0c-0.1-0.78-0.2-1.52-0.31-2.34c-0.2,0.09-0.43,0.11-0.52,0.24
		c-2.32,3.28-9.66,3.14-12.56,1.25c-0.58-0.38-1.15-0.89-1.54-1.46c-3.16-4.58-0.55-10.7,4.9-11.52c3.33-0.5,6.61-0.45,9.5,1.66
		c1.49-4.77-1.27-8.77-6.16-8.83c-2.34-0.03-4.68,0.27-7.03,0.41c-0.14-1.57,0.04-1.84,1.64-2.16c3.12-0.62,6.25-0.9,9.33,0.18
		c3.27,1.14,4.8,3.66,4.88,6.94c0.13,5.06,0.03,10.14,0.03,15.2C217.55,48.88,217.49,48.99,217.43,49.18z M201.95,42.23
		c-0.05,1.98,0.24,3.87,2.36,4.63c2.67,0.97,5.41,0.91,8.04-0.23c2.01-0.87,2.96-2.84,2.69-5.24c-0.25-2.24-1.33-3.49-3.65-3.95
		c-1.24-0.25-2.54-0.4-3.79-0.33C203.28,37.38,201.95,38.64,201.95,42.23z"/>
	<path class="st2" d="M156.26,28.61c0.18-1.85,0.18-1.86,1.99-2.21c2.97-0.58,5.95-0.8,8.88,0.16c3.12,1.02,4.89,3.3,5.01,6.46
		c0.2,5.34,0.05,10.69,0.05,16.13c-0.7,0-1.35,0-2.14,0c-0.1-0.74-0.2-1.5-0.32-2.45c-0.71,0.61-1.26,1.19-1.9,1.62
		c-2.91,1.93-8.77,1.77-11.62-0.31c-0.44-0.32-0.84-0.74-1.14-1.2c-2.22-3.37-1.22-9.06,2.11-10.53c3.96-1.73,8.04-1.86,11.93,0.49
		c0.13,0.08,0.26,0.16,0.4,0.25c1.5-4.8-1.25-8.78-6.18-8.83C161.01,28.17,158.67,28.46,156.26,28.61z M156.62,42
		c-0.04,2.2,0.25,4.07,2.29,4.84c2.74,1.03,5.56,0.96,8.25-0.27c1.94-0.89,2.83-2.91,2.54-5.33c-0.25-2.07-1.34-3.37-3.56-3.75
		c-1.58-0.28-3.24-0.32-4.85-0.25C157.97,37.39,156.62,38.92,156.62,42z"/>
	<path class="st2" d="M210.09,69.37c2.94-3.46,5.72-6.74,8.51-9.99c0.24-0.28,0.63-0.59,0.95-0.59c2.86-0.05,5.72-0.03,8.87-0.03
		c-1.73,1.77-3.27,3.36-4.83,4.93c-1.69,1.7-3.37,3.41-5.1,5.06c-0.33,0.32-0.88,0.58-1.33,0.59
		C214.9,69.4,212.62,69.37,210.09,69.37z"/>
	<g>
		<path class="st3" d="M81.68,50.1c2.38-2.26,4.69-4.45,7.08-6.72c2.52,3.33,5.12,6.76,7.76,10.24c-2.3,2.09-4.53,4.12-6.82,6.2
			C87.05,56.61,84.44,53.45,81.68,50.1z"/>
		<path class="st3" d="M73.07,59.88c2.24-2.54,4.46-5.04,6.79-7.68c2.67,3.24,5.24,6.37,7.88,9.57c-2.48,2.33-4.86,4.57-7.27,6.85
			C78.17,65.91,75.68,62.96,73.07,59.88z"/>
		<path class="st4" d="M52.17,23.71c2.55,2.38,4.96,4.64,7.4,6.92c-2.31,2.95-4.57,5.82-6.86,8.73c-2.56-2.19-5.08-4.35-7.68-6.58
			C47.4,29.78,49.74,26.81,52.17,23.71z"/>
		<path class="st5" d="M62.2,48.33c-2.47-2.36-4.91-4.7-7.44-7.12c2.25-2.87,4.48-5.72,6.64-8.47c2.63,2.5,5.2,4.93,7.8,7.4
			C66.79,42.96,64.51,45.62,62.2,48.33z"/>
		<path class="st3" d="M65.02,69.97c2.09-2.66,4.13-5.25,6.26-7.96c2.54,3.01,4.97,5.9,7.47,8.86c-2.23,2.54-4.42,5.04-6.64,7.57
			C69.75,75.61,67.43,72.84,65.02,69.97z"/>
		<path class="st4" d="M43.81,52.17c-1.94,3.22-3.78,6.29-5.69,9.46c-2.57-2.18-5.1-4.34-7.71-6.56c1.91-3.15,3.8-6.28,5.79-9.55
			C38.79,47.78,41.27,49.95,43.81,52.17z"/>
		<path class="st6" d="M79.72,47.86c-2.15-2.38-4.47-4.95-6.89-7.63c2.3-2.51,4.58-5,6.99-7.63c2.38,2.84,4.7,5.61,7.02,8.39
			C84.44,43.3,82.1,45.56,79.72,47.86z"/>
		<path class="st6" d="M70.98,42.27c2.42,2.68,4.71,5.22,7.06,7.84c-2.29,2.58-4.52,5.11-6.82,7.7c-2.35-2.5-4.66-4.95-7.07-7.51
			C66.4,47.67,68.61,45.07,70.98,42.27z"/>
		<path class="st7" d="M64.74,110.55c-2.05-2.75-4.02-5.36-5.94-8c-0.18-0.25-0.27-0.79-0.13-1.02c1.79-2.77,3.63-5.51,5.57-8.43
			c1.59,2.01,3.07,3.87,4.52,5.75c1.86,2.41,1.83,2.42,0.22,4.95C67.58,106,66.2,108.23,64.74,110.55z"/>
		<path class="st8" d="M43.2,15.93c2.42,2.09,4.68,4.03,6.92,5.97c-2.44,3.1-4.81,6.09-7.23,9.17c-2.28-1.76-4.53-3.49-6.9-5.31
			C38.39,22.47,40.74,19.27,43.2,15.93z"/>
		<path class="st3" d="M57.46,80.89c1.94-2.85,3.86-5.68,5.89-8.66c2.4,2.88,4.67,5.59,6.98,8.35c-2.06,2.67-4.08,5.28-6.2,8.01
			C61.92,86.04,59.72,83.5,57.46,80.89z"/>
		<path class="st9" d="M72.35,103.53c2.05,2.89,4.02,5.64,5.93,8.43c0.15,0.21,0.02,0.76-0.15,1.03c-1.67,2.53-3.37,5.03-5.19,7.72
			c-0.22-1.82-1.48-2.44-2.9-2.92c-0.3-0.1-0.58-0.41-0.78-0.68c-0.92-1.3-1.81-2.62-2.79-4.06
			C68.38,109.95,70.32,106.82,72.35,103.53z"/>
		<path class="st6" d="M48.84,71.77c1.92-2.97,3.81-5.9,5.82-9.02c2.35,2.54,4.58,4.95,6.82,7.37c-2,2.92-3.95,5.76-5.94,8.67
			C53.32,76.46,51.15,74.19,48.84,71.77z"/>
		<path class="st5" d="M71.16,37.97c-2.65-2.5-5.26-4.95-7.9-7.44c1.81-2.08,3.53-4.06,5.31-6.11c1.49,0.98,2.91,1.94,4.36,2.86
			c0.31,0.2,0.75,0.2,1.09,0.36c0.59,0.27,1.27,0.48,1.7,0.92c0.66,0.66,1.14,1.5,1.83,2.45C75.51,33.24,73.23,35.72,71.16,37.97z"
			/>
		<path class="st6" d="M62.41,52.44c2.41,2.58,4.68,4.99,7.02,7.49c-2.1,2.67-4.16,5.29-6.26,7.95c-2.27-2.45-4.52-4.87-6.87-7.4
			C58.3,57.85,60.3,55.22,62.41,52.44z"/>
		<path class="st4" d="M37.71,43.2c1.92-2.76,3.76-5.41,5.69-8.19c2.62,2.25,5.15,4.41,7.67,6.57c-1.93,2.77-3.79,5.45-5.74,8.25
			C42.82,47.65,40.32,45.47,37.71,43.2z"/>
		<path class="st5" d="M60.45,50.47c-2.09,2.73-4.09,5.34-6.29,8.22c-2.18-2.43-4.3-4.8-6.54-7.29c1.66-2.4,3.53-5.11,5.5-7.95
			C55.59,45.82,57.99,48.12,60.45,50.47z"/>
		<path class="st5" d="M40.2,63.52c1.86-3.12,3.71-6.21,5.7-9.53c2.24,2.45,4.36,4.75,6.54,7.13c-1.73,2.65-3.66,5.6-5.64,8.62
			C44.63,67.69,42.49,65.68,40.2,63.52z"/>
		<path class="st7" d="M72.07,82.8c2.07,2.73,4.02,5.29,5.99,7.9c-1.95,2.72-3.87,5.37-5.83,8.11c-2.11-2.68-4.18-5.3-6.31-8
			C67.93,88.19,69.93,85.58,72.07,82.8z"/>
		<path class="st3" d="M56.48,99.55c-1.79-2.18-3.6-4.35-5.37-6.55c-0.15-0.19-0.2-0.62-0.09-0.82c1.57-2.9,3.18-5.78,4.89-8.86
			c1.58,1.82,3.05,3.48,4.47,5.16c0.69,0.81,1.77,1.65,1.84,2.53c0.06,0.81-1.01,1.71-1.58,2.56c-1.31,1.95-2.62,3.9-3.93,5.85
			C56.67,99.47,56.58,99.5,56.48,99.55z"/>
		<path class="st7" d="M79.8,88.42c-2.01-2.63-3.94-5.16-5.94-7.78c2.16-2.49,4.33-4.97,6.62-7.6c1.87,2.47,3.68,4.82,5.45,7.21
			c0.12,0.17,0.08,0.62-0.07,0.8C83.88,83.49,81.87,85.91,79.8,88.42z"/>
		<path class="st6" d="M48.8,90.26c-1.97-2.14-3.91-4.24-5.82-6.37c-0.15-0.16-0.15-0.6-0.04-0.83c1.42-2.89,2.88-5.76,4.43-8.84
			c1.12,1.17,2.11,2.18,3.09,3.21c1.04,1.1,2.08,2.2,3.08,3.34c0.19,0.21,0.35,0.69,0.25,0.88C52.16,84.51,50.49,87.35,48.8,90.26z"
			/>
		<path class="st7" d="M89.54,64.1c1.74,2.29,3.52,4.64,5.35,7.03c-2.27,2.45-4.48,4.84-6.79,7.33c-1.89-2.45-3.77-4.89-5.74-7.45
			C84.73,68.73,87.08,66.47,89.54,64.1z"/>
		<path class="st5" d="M38.84,65.98c2.29,2.18,4.41,4.21,6.51,6.2c-1.62,3.09-3.19,6.08-4.79,9.12c-1.96-1.91-3.94-3.8-5.87-5.74
			c-0.19-0.19-0.22-0.72-0.09-0.99C35.96,71.76,37.36,68.96,38.84,65.98z"/>
		<path class="st8" d="M35.58,41.45c-2.25-1.76-4.41-3.45-6.69-5.24c1.83-2.71,3.63-5.4,5.51-8.19c2.32,1.78,4.56,3.5,6.85,5.26
			C39.37,36,37.52,38.67,35.58,41.45z"/>
		<path class="st3" d="M49.36,95.14c1.92,2.39,3.63,4.48,5.3,6.61c0.14,0.18,0.18,0.62,0.06,0.82c-1.7,2.92-3.43,5.81-5.18,8.76
			c-1.43-1.78-2.85-3.5-4.21-5.26c-0.18-0.23-0.25-0.7-0.14-0.96C46.51,101.88,47.87,98.67,49.36,95.14z"/>
		<path class="st7" d="M98.1,55.88c1.49,2.13,2.88,4.12,4.22,6.04c-1.66,2.55-2.74,5.46-5.55,7.13c-1.72-2.26-3.5-4.59-5.37-7.05
			C93.58,60,95.78,58,98.1,55.88z"/>
		<path class="st9" d="M79.87,92.86c1.01,1.83,2.11,3.39,2.74,5.12c0.39,1.06-0.49,2.1-1.5,2.71c-0.79,0.47-1.16,1.08-0.93,1.98
			c0.06,0.25,0.2,0.6,0.4,0.68c1.14,0.48,1.05,1.45,1.1,2.42c0.02,0.49,0.24,0.97,0.44,1.73c-0.43,0.58-1.09,1.47-1.82,2.45
			c-2.13-2.97-4.21-5.86-6.32-8.81C75.89,98.45,77.78,95.79,79.87,92.86z"/>
		<path class="st6" d="M44.84,98.61c-0.87-0.41-1.58-0.8-2.33-1.07c-0.67-0.24-1.42-0.26-2.07-0.53c-1.89-0.79-2.36-1.87-1.65-3.84
			c0.81-2.24,1.69-4.45,2.63-6.92c1.79,1.98,3.35,3.81,5.03,5.53c0.89,0.91,1,1.65,0.33,2.76C45.98,95.89,45.41,97.4,44.84,98.61z"
			/>
		<path class="st10" d="M56.93,18.24c3,1.65,5.93,3.26,9.03,4.97c-1.62,1.89-3.09,3.59-4.6,5.34c-2.48-2.32-4.9-4.59-7.38-6.92
			C54.99,20.47,55.95,19.37,56.93,18.24z"/>
		<path class="st11" d="M26.82,22.65c1.73,1.21,3.49,2.44,5.36,3.74c-1.82,2.71-3.61,5.37-5.44,8.09c-0.95-0.45-1.75-0.91-1.99-2.1
			c-0.18-0.88-0.61-1.72-1.03-2.52c-0.68-1.32-0.51-2.58,0.3-3.72C24.87,24.95,25.85,23.85,26.82,22.65z"/>
		<path class="st11" d="M33.77,24.16c-1.9-1.32-3.68-2.53-5.43-3.79c-0.29-0.21-0.45-0.6-0.63-0.92c-0.36-0.63-0.69-1.26-1.12-2.06
			c0.27-0.07,0.72-0.27,1.17-0.28c2.35-0.08,4.71-0.04,7.06-0.19c1.5-0.1,2.98-0.45,4.74-0.74C37.57,18.92,35.7,21.5,33.77,24.16z"
			/>
		<path class="st7" d="M100.2,54.1c0.77-0.66,1.53-1.3,2.36-2.01c1.05,0.99,2.26,1.39,3.74,1.66c1.62,0.28,3.45,0.84,4.84,2.28
			c-2.18,1.61-3.68,3.9-6.59,4.29C103.15,58.32,101.7,56.24,100.2,54.1z"/>
		<path class="st10" d="M29.09,57.53c2.63,2.25,5.11,4.37,7.68,6.57c-1.01,1.96-2.01,3.89-3.1,5.99c-0.66-0.56-1.37-1-1.86-1.62
			c-0.32-0.4-0.52-1.11-0.4-1.6c0.26-1.05,0.14-1.92-0.47-2.82c-0.3-0.44-0.37-1.04-0.55-1.56c-0.15-0.41-0.19-0.97-0.49-1.18
			C28.6,60.33,28.8,59.06,29.09,57.53z"/>
		<path class="st12" d="M61.87,111.31c-3.26-1.11-6.24-0.97-9.32,0.35c1.38-2.35,2.77-4.71,4.24-7.22
			C58.56,106.83,60.22,109.07,61.87,111.31z"/>
		<path class="st13" d="M28.23,53.34c-0.7-0.83-0.56-1.86,0.31-2.79c0.52-0.55,1.11-1.04,1.63-1.58c1.58-1.62,1.29-3.32-0.24-4.87
			c-1.52-1.54-2.26-3.2-2.48-5.53c2.31,1.81,4.47,3.5,6.62,5.19C32.09,46.99,30.19,50.12,28.23,53.34z"/>
		<path class="st14" d="M91.07,40.89c1.59,1.69,3.02,3.48,4.72,4.94c1.63,1.41,3.54,2.49,5.42,3.78c-0.81,0.7-1.64,1.42-2.53,2.19
			c-0.15-0.13-0.31-0.23-0.42-0.37c-2.39-3.15-4.77-6.3-7.17-9.44C90.75,41.54,90.4,41.15,91.07,40.89z"/>
		<path class="st15" d="M35.15,80.12c1.34,1.26,2.77,2.6,4.2,3.95c-0.7,1.69-1.37,3.29-2.08,4.99
			C36.45,85.97,34.67,83.25,35.15,80.12z"/>
		<path class="st16" d="M51.92,19.83c-1.56-1.36-3.06-2.66-4.56-3.95c0.03-0.11,0.05-0.22,0.08-0.33c2.31,0.36,4.61,0.73,7.19,1.13
			C53.64,17.82,52.8,18.8,51.92,19.83z"/>
		<path class="st17" d="M90.85,82.27c-0.45-0.62-0.75-1.04-1.07-1.48c0.26-0.31,0.48-0.59,0.72-0.85c1.12-1.23,2.24-2.46,3.47-3.82
			c0.09,0.46,0.26,0.79,0.18,1.03c-0.4,1.18-0.75,2.4-1.36,3.47C92.4,81.28,91.57,81.68,90.85,82.27z"/>
		<path class="st18" d="M83.18,93.13c-0.56-0.78-1.09-1.51-1.68-2.32c0.6-0.78,1.2-1.55,1.77-2.28c0.43,0.58,0.9,1.07,1.19,1.65
			c0.15,0.3,0.1,0.82-0.06,1.14C84.1,91.9,83.66,92.43,83.18,93.13z"/>
		<path class="st19" d="M84.49,108.9c0.33,2.1-0.53,3.27-1.89,4.24c-0.54-0.34-0.76-0.71-0.28-1.31
			C83.01,110.96,83.64,110.05,84.49,108.9z"/>
		<path class="st20" d="M43.91,108.7c0.8,0.99,1.46,1.82,2.23,2.77c-1.12,0-2.07,0-3.13,0C43.3,110.58,43.57,109.73,43.91,108.7z"/>
	</g>
	<path class="st21" d="M258.01,124.42c0.34,0.14,0.54,0.24,0.76,0.3c1.62,0.47,2.79,1.46,3.1,3.14c0.32,1.74-0.23,3.29-1.71,4.31
		c-0.8,0.55-1.79,1.1-2.71,1.13c-3.62,0.13-7.24,0.05-10.94,0.05c0-5.47,0-11.04,0-16.77c2.75,0,5.49-0.03,8.23,0.02
		c1.11,0.02,2.25,0.07,3.31,0.35c2.42,0.65,3.63,2.82,2.91,4.94C260.49,123.25,259.46,123.98,258.01,124.42z M251.85,129.99
		c1.04,0,1.99,0.08,2.93-0.02c1-0.11,1.7-0.69,1.72-1.8c0.02-1.04-0.56-1.67-1.55-1.8c-1-0.14-2.03-0.14-3.1-0.2
		C251.85,127.52,251.85,128.7,251.85,129.99z M251.85,123.29c0.84,0,1.64,0.07,2.42-0.02c0.9-0.1,1.61-0.53,1.64-1.57
		c0.03-0.97-0.56-1.48-1.45-1.59c-0.85-0.11-1.72-0.1-2.61-0.15C251.85,121.15,251.85,122.17,251.85,123.29z"/>
	<path class="st21" d="M304.03,116.65c1.95,5.62,3.88,11.18,5.84,16.83c-1.94,0-3.78,0-5.66,0c-0.06-0.18-0.13-0.36-0.19-0.55
		c-0.85-2.73-0.85-2.73-3.65-2.73c-2.52,0-2.52,0-3.24,2.46c-0.08,0.27-0.18,0.53-0.29,0.84c-1.73,0-3.48,0-5.41,0
		c1.96-5.64,3.89-11.22,5.85-16.86C299.49,116.65,301.71,116.65,304.03,116.65z M300.66,120.94c-0.09,0-0.18,0-0.27,0
		c-0.52,1.86-1.04,3.71-1.58,5.63c1.18,0,2.25,0,3.44,0C301.71,124.66,301.19,122.8,300.66,120.94z"/>
	<path class="st21" d="M276.29,116.69c0,1.28,0,2.54,0,3.92c-2.42,0-4.8,0-7.24,0c0,0.9,0,1.68,0,2.6c2.26,0,4.52,0,6.82,0
		c0,1.28,0,2.41,0,3.64c-2.29,0-4.52,0-6.81,0c0,0.91,0,1.73,0,2.65c2.37,0,4.75,0,7.2,0c0,1.38,0,2.67,0,4.01
		c-4.19,0-8.33,0-12.55,0c0-5.59,0-11.16,0-16.82C267.83,116.69,271.99,116.69,276.29,116.69z"/>
	<path class="st21" d="M292.83,116.67c0,1.3,0,2.56,0,3.95c-1.55,0-3.05,0-4.66,0c0,2.23,0,4.33,0,6.44c0,2.11,0,4.22,0,6.42
		c-1.78,0-3.48,0-5.31,0c0-4.22,0-8.46,0-12.82c-1.63,0-3.13,0-4.7,0c0-1.37,0-2.63,0-3.98
		C283.01,116.67,287.86,116.67,292.83,116.67z"/>
	<path class="st22" d="M262.59,111.62c0.83-0.77,1.65-1.54,2.63-2.46c0.14,0.98,0.25,1.72,0.35,2.46
		C264.58,111.62,263.59,111.62,262.59,111.62z"/>
	<path class="st21" d="M264.72,91.45c-0.12,2.99-0.05,6-0.41,8.95c-0.5,4-2.64,5.98-6.65,6.43c-1.32,0.15-2.72,0.08-4.03-0.17
		c-2.53-0.47-4.23-2.07-4.91-4.53c-0.45-1.64-0.75-3.36-0.8-5.05c-0.09-2.74-0.14-5.52,0.19-8.24c0.72-5.8,3.99-8.42,9.85-7.88
		c1.98,0.18,3.89,1.01,5.83,1.57c0.67,0.19,0.87,0.65,0.85,1.36c-0.05,2.51-0.02,5.03-0.02,7.55
		C264.64,91.45,264.68,91.45,264.72,91.45z"/>
	<path class="st21" d="M179.05,95.42c1.11,0.1,2.23,0.14,3.32,0.3c2.58,0.38,4.25,1.88,4.48,3.93c0.37,3.3-0.71,5.65-3.25,6.62
		c-2.96,1.13-6.02,1.11-9.02,0.2c-1.63-0.49-2.76-1.69-2.93-3.43c-0.13-1.36-0.14-2.8,0.15-4.13c0.47-2.09,2.35-3.2,5.2-3.38
		c0.68-0.04,1.36-0.01,2.03-0.01C179.04,95.49,179.05,95.45,179.05,95.42z"/>
	<path class="st21" d="M287.02,90.56c0.46-2.05,0.72-4.02,1.36-5.87c0.85-2.45,2.88-3.66,5.37-3.98c1.29-0.16,2.64-0.16,3.94,0
		c3.33,0.43,5.19,2.45,5.65,6.1c0.15,1.21,0.02,2.46,0.02,3.75C298.03,90.56,292.7,90.56,287.02,90.56z"/>
	<path class="st21" d="M193.85,38.15c-0.22,1.47-0.33,3.23-0.77,4.91c-0.59,2.26-2.15,3.68-4.5,4.09c-2.81,0.49-5.56,0.31-8.14-1.03
		c-0.32-0.17-0.7-0.61-0.7-0.93c-0.02-3.51-0.06-7.02,0.08-10.52c0.23-5.43,3.63-6.66,7.86-6.41c3.36,0.2,5.1,1.85,5.66,5.22
		C193.6,34.92,193.67,36.39,193.85,38.15z"/>
	<path class="st21" d="M249.59,35.89c-0.11,2.14-0.06,4.31-0.37,6.43c-0.47,3.23-2.68,4.89-5.95,5.08c-5.24,0.3-7.26-2.01-7.52-6.72
		c-0.13-2.37-0.13-4.78,0.2-7.12c0.47-3.31,2.22-4.88,5.51-5.31c2.48-0.32,4.92-0.03,7.24,1.01c0.6,0.27,0.82,0.59,0.8,1.25
		c-0.05,1.79-0.02,3.59-0.02,5.38C249.52,35.88,249.55,35.88,249.59,35.89z"/>
	<path class="st21" d="M264.49,47.52c-0.55-0.05-1.11-0.09-1.66-0.15c-3.71-0.35-4.55-2.42-4.4-5.41c0.16-3.35,1.45-4.54,4.86-4.74
		c1.46-0.09,2.95-0.06,4.39,0.16c2.44,0.38,3.72,1.8,3.87,3.99c0.2,2.86-0.89,4.77-3.31,5.52c-1.2,0.37-2.48,0.51-3.72,0.76
		C264.51,47.6,264.5,47.56,264.49,47.52z"/>
	<path class="st21" d="M201.95,42.23c0-3.6,1.33-4.85,5.65-5.11c1.25-0.07,2.55,0.08,3.79,0.33c2.32,0.46,3.4,1.71,3.65,3.95
		c0.27,2.39-0.68,4.37-2.69,5.24c-2.63,1.14-5.37,1.2-8.04,0.23C202.19,46.1,201.89,44.21,201.95,42.23z"/>
	<path class="st21" d="M156.62,42c0-3.08,1.35-4.61,4.67-4.76c1.61-0.08,3.27-0.03,4.85,0.25c2.22,0.39,3.3,1.69,3.56,3.75
		c0.29,2.42-0.6,4.44-2.54,5.33c-2.69,1.23-5.51,1.3-8.25,0.27C156.87,46.07,156.58,44.2,156.62,42z"/>
	<path class="st23" d="M251.85,129.99c0-1.29,0-2.47,0-3.82c1.07,0.06,2.1,0.06,3.1,0.2c0.99,0.14,1.57,0.76,1.55,1.8
		c-0.02,1.1-0.72,1.68-1.72,1.8C253.84,130.07,252.88,129.99,251.85,129.99z"/>
	<path class="st23" d="M251.85,123.29c0-1.12,0-2.14,0-3.33c0.89,0.05,1.76,0.04,2.61,0.15c0.89,0.11,1.48,0.62,1.45,1.59
		c-0.03,1.04-0.74,1.47-1.64,1.57C253.48,123.36,252.68,123.29,251.85,123.29z"/>
	<path class="st24" d="M300.66,120.94c0.52,1.86,1.04,3.72,1.58,5.64c-1.19,0-2.26,0-3.44,0c0.54-1.92,1.06-3.78,1.58-5.63
		C300.48,120.94,300.57,120.94,300.66,120.94z"/>
</g>
</svg>
